PathFileType	4	(X/Y/Z)	G:\Shared drives\HIT\Data\HapticPilot\Subject1\Edited\static1.trc
DataRate	CameraRate	NumFrames	NumMarkers	Units	OrigDataRate	OrigDataStartFrame	OrigNumFrames
50.00	50.00	       10	38	mm	50.00	114	       227
Frame#	Time	r_knee			r_shank(antsup)			r_ankle			r_calc			r_5meta			r_toe			L_knee			L_shank(ant_sup)			L_ankle			L_calc			L_5meta			L_toe			r_mknee			r_mankle			L_mknee			L_mankle			r_sh2			r_sh3			r_sh4			L_sh2			L_sh3			r_thigh1			r_thigh2			r_thigh3			r_thigh4			r_thigh5			L_thigh1			L_thigh2			L_thigh3			L_thigh4			r.ASIS			r.PSIS			L.ASIS			L.PSIS			C7			R_Shoulder			L_Shoulder			Sternum			
		X1	Y1	Z1	X2	Y2	Z2	X3	Y3	Z3	X4	Y4	Z4	X5	Y5	Z5	X6	Y6	Z6	X7	Y7	Z7	X8	Y8	Z8	X9	Y9	Z9	X10	Y10	Z10	X11	Y11	Z11	X12	Y12	Z12	X13	Y13	Z13	X14	Y14	Z14	X15	Y15	Z15	X16	Y16	Z16	X17	Y17	Z17	X18	Y18	Z18	X19	Y19	Z19	X20	Y20	Z20	X21	Y21	Z21	X22	Y22	Z22	X23	Y23	Z23	X24	Y24	Z24	X25	Y25	Z25	X26	Y26	Z26	X27	Y27	Z27	X28	Y28	Z28	X29	Y29	Z29	X30	Y30	Z30	X31	Y31	Z31	X32	Y32	Z32	X33	Y33	Z33	X34	Y34	Z34	X35	Y35	Z35	X36	Y36	Z36	X37	Y37	Z37	X38	Y38	Z38	

114	2.260	774.09338	409.62057	578.78925	788.17670	404.76886	491.89413	735.10217	409.10455	114.31090	646.45428	452.13248	71.42149	847.13269	382.29929	39.40475	886.13367	445.12259	73.57772	768.47272	732.62219	573.19812	793.27515	733.85114	455.88025	705.34503	732.10394	113.42733	629.75854	681.32355	73.49978	821.01721	777.85101	42.48148	868.11981	721.39636	70.98198	771.86896	535.64319	557.95374	747.09753	505.35526	120.79070	786.54565	610.24823	562.61731	736.94635	642.23511	120.79307	784.68939	401.46457	371.72705	713.23944	392.84113	491.75064	702.70959	386.13135	375.84506	705.51569	752.46191	476.13333	693.04028	753.71954	354.04355	843.71118	393.35852	898.48932	842.17517	396.36420	783.54755	796.54663	383.87863	750.66772	730.75555	382.26733	893.08435	735.60748	394.19336	775.99835	857.18738	753.05402	839.40283	858.40485	743.98553	701.50629	741.97119	771.76440	838.41144	746.13995	752.42395	704.17133	867.82507	447.48584	1094.52698	678.75903	540.25714	1127.09131	877.15308	705.48456	1095.94006	687.03888	622.78137	1125.82275	726.92859	589.08099	1608.85632	770.81030	423.53683	1582.63135	794.73779	765.18793	1575.81189	868.78998	581.42151	1535.96777	
115	2.280	774.12213	409.68710	578.77179	788.20020	404.78833	491.90778	735.11340	409.10669	114.33189	646.49561	452.14862	71.35753	847.10828	382.30920	39.37502	886.13562	445.10333	73.55172	768.44580	732.63477	573.15234	793.25891	733.84747	455.85916	705.35168	732.11090	113.42473	629.72931	681.35406	73.49783	821.00812	777.87268	42.46167	868.11304	721.41541	70.98435	771.87445	535.68518	557.96777	747.08795	505.35925	120.77892	786.59625	610.24213	562.58289	736.92645	642.27899	120.71622	784.68390	401.50580	371.76367	713.23517	392.82404	491.78406	702.72314	386.17719	375.84509	705.47467	752.55115	476.08307	693.04266	753.78912	354.06552	843.80688	393.43576	898.49774	842.04797	396.37152	783.56830	796.59052	383.88849	750.65100	730.83502	382.34525	893.08539	735.67657	394.21658	775.96692	857.23981	753.09473	839.40863	858.42474	744.03302	701.50519	742.10437	771.71588	838.43195	746.17737	752.46710	704.18591	867.96210	447.51843	1094.57031	678.87842	540.32391	1127.03540	877.33557	705.49921	1095.92822	687.15393	622.81787	1125.77441	727.11029	589.05756	1608.79236	771.01764	423.53171	1582.69958	794.96252	765.16962	1575.84277	869.07556	581.41278	1536.05994	
116	2.300	774.16595	409.71439	578.76385	788.23621	404.79031	491.94315	735.08606	409.10483	114.32841	646.47070	452.20297	71.30600	847.11969	382.27484	39.38430	886.15497	445.12531	73.49881	768.43146	732.66309	573.08276	793.26038	733.87677	455.90311	705.40472	732.09650	113.39363	629.77692	681.36774	73.42005	821.01337	777.84595	42.43988	868.11230	721.41553	70.95508	771.93890	535.68713	557.91345	747.09619	505.36255	120.79285	786.47778	610.27271	562.51770	736.97437	642.23773	120.77018	784.68176	401.51398	371.75967	713.24567	392.84433	491.78195	702.73645	386.17792	375.88226	705.52240	752.53809	476.10846	693.01935	753.68744	354.11752	843.91052	393.43213	898.55341	842.27191	396.43802	783.56622	796.72528	383.88019	750.67358	730.92841	382.42783	893.11670	735.81311	394.20721	776.02441	857.39551	753.16754	839.36768	858.46826	744.05725	701.46106	742.17041	771.81232	838.38574	746.23267	752.45862	704.16144	868.08472	447.60269	1094.55078	678.95728	540.33453	1126.93958	877.48065	705.48346	1095.97290	687.39026	622.88873	1125.67798	727.25818	589.06091	1608.76941	771.24951	423.47104	1582.75854	795.20435	765.11084	1575.85010	869.29907	581.40247	1536.06775	
117	2.320	774.20972	409.71277	578.75220	788.26105	404.80417	491.90878	735.10364	409.10184	114.33346	646.47205	452.18320	71.35471	847.11786	382.29242	39.39268	886.15155	445.11234	73.53121	768.44354	732.69391	573.04449	793.28363	733.86938	455.87323	705.40259	732.11383	113.41635	629.78156	681.32495	73.46346	820.98700	777.86084	42.42717	868.13605	721.42206	70.97993	771.99841	535.70715	557.92719	747.13373	505.35312	120.78014	786.45862	610.31586	562.49835	736.84454	642.24506	120.68812	784.70013	401.49954	371.75491	713.29980	392.87567	491.78391	702.72650	386.21341	375.87701	705.54657	752.57019	476.11517	693.07397	753.68585	354.09647	843.98492	393.44891	898.55591	842.53973	396.39429	783.60883	796.84387	383.83105	750.72052	731.04669	382.45020	893.13745	735.88678	394.25043	776.00806	857.62952	753.26642	839.35632	858.59796	744.04218	701.41486	742.38098	771.87634	838.35596	746.45868	752.44495	704.16571	868.20087	447.55368	1094.54663	679.04041	540.40240	1126.91272	877.60956	705.40332	1096.00964	687.49799	622.89880	1125.63416	727.37195	589.01721	1608.73962	771.56287	423.40710	1582.81067	795.43945	765.00360	1575.92236	869.50342	581.32599	1536.04028	
118	2.340	774.24854	409.74820	578.78131	788.37457	404.78400	491.93109	735.10126	409.12506	114.31379	646.48633	452.15036	71.34856	847.13086	382.26068	39.41247	886.13232	445.10760	73.53359	768.40118	732.72864	573.08051	793.27094	733.87689	455.85675	705.39899	732.09174	113.39707	629.76312	681.32477	73.49150	821.00409	777.87036	42.43938	868.13049	721.41754	70.96804	772.05487	535.73346	557.94641	747.10028	505.35458	120.73849	786.47675	610.35187	562.52020	736.89471	642.23309	120.69547	784.74176	401.47217	371.75537	713.31274	392.91187	491.81595	702.78906	386.22028	375.87320	705.49384	752.53577	476.11810	693.10052	753.67810	354.09415	844.12091	393.46466	898.50183	842.82758	396.44516	783.57886	796.94635	383.87469	750.74323	731.18408	382.43213	893.19385	735.95758	394.24936	776.05103	857.77338	753.32428	839.31219	858.68567	744.06335	701.37476	742.49078	771.93994	838.34735	746.56952	752.47388	704.16968	868.31482	447.57141	1094.52783	679.22003	540.42114	1126.86255	877.85663	705.35736	1096.04407	687.58850	623.01227	1125.65027	727.55457	588.97345	1608.83472	771.83490	423.35504	1582.80103	795.65369	764.97382	1575.98022	869.70020	581.30908	1535.99890	
119	2.360	774.32410	409.77457	578.75494	788.31006	404.84610	491.86572	735.10516	409.11356	114.33462	646.52948	452.11481	71.38860	847.13525	382.24261	39.40118	886.16278	445.07935	73.53159	768.47614	732.74707	573.13361	793.31732	733.93048	455.92139	705.40338	732.08154	113.40701	629.79034	681.29340	73.56644	821.01282	777.82465	42.50127	868.14868	721.40131	70.96658	772.19055	535.71484	557.92841	747.12793	505.34766	120.72851	786.44409	610.35431	562.47827	736.80548	642.27008	120.67188	784.79016	401.50552	371.74646	713.35022	392.87814	491.78183	702.79211	386.23901	375.85532	705.55865	752.55334	476.14859	693.15173	753.78162	354.05652	844.23303	393.45529	898.55542	842.69366	396.33234	783.59351	796.98700	383.93069	750.72894	731.29016	382.55826	893.13416	736.05701	394.32898	776.06934	857.81274	753.39026	839.06989	858.80371	744.08008	701.35217	742.67413	771.98041	838.32092	746.78467	752.57941	704.18164	868.42090	447.56842	1094.48511	679.37213	540.46185	1126.90149	878.03827	705.32428	1096.08997	687.71265	623.03290	1125.69543	727.71985	588.87878	1608.86926	772.10657	423.28320	1582.84875	795.89136	764.89044	1576.09143	869.87250	581.22571	1536.02490	
120	2.380	774.39539	409.78476	578.77942	788.43347	404.81430	491.92007	735.12726	409.10422	114.31084	646.51868	452.12726	71.41704	847.14435	382.28946	39.38393	886.14319	445.04727	73.54285	768.56702	732.74646	573.12750	793.39355	733.94177	455.91022	705.41272	732.05359	113.42776	629.79724	681.24768	73.54697	821.03711	777.86127	42.49255	868.15680	721.37238	70.97103	772.27502	535.72430	557.90680	747.10596	505.35471	120.76109	786.58136	610.28632	562.48468	736.96918	642.22919	120.76636	784.83466	401.50534	371.72107	713.41614	392.84698	491.79257	702.84045	386.27103	375.88885	705.63031	752.60266	476.14920	693.12000	753.70813	354.02982	844.35046	393.44748	898.53790	842.99011	396.35596	783.61652	797.11084	383.87332	750.77228	731.44324	382.59894	893.16913	736.12421	394.34378	776.08203	857.93372	753.40546	839.06750	858.92938	744.12183	701.35516	742.78113	772.05841	838.31696	746.46204	752.61798	704.18451	868.56244	447.55936	1094.49011	679.49121	540.50244	1126.87817	878.25671	705.31744	1096.10303	687.81598	623.07574	1125.71741	727.80475	588.77411	1608.89990	772.27417	423.28162	1582.87878	796.15192	764.81982	1576.11755	870.04694	581.16199	1536.03479	
121	2.400	774.45862	409.78122	578.75995	788.50555	404.88892	491.88080	735.13287	409.09708	114.33337	646.48035	452.12308	71.42007	847.12140	382.30286	39.36212	886.14960	445.08185	73.52217	768.62433	732.77777	573.10968	793.37775	733.96875	455.89856	705.39746	732.03882	113.43582	629.78784	681.27698	73.52554	821.00928	777.87921	42.48943	868.13812	721.40894	70.95247	772.32465	535.77374	557.88300	747.11987	505.35349	120.72620	786.66675	610.29877	562.48865	736.99921	642.27606	120.73547	784.87830	401.50278	371.74283	713.52350	392.82919	491.79327	702.88269	386.27979	375.91513	705.65350	752.57611	476.14041	693.20166	753.67133	354.07104	844.49860	393.45590	898.54321	843.06537	396.38242	783.61926	797.24536	383.83295	750.76831	731.44550	382.69989	893.12744	736.25940	394.46594	776.05725	858.32153	753.44006	839.22058	859.09900	744.12793	701.27393	743.02905	772.16827	838.33997	746.54492	752.70270	704.23737	868.78198	447.55798	1094.46643	679.66638	540.56268	1126.84656	878.46783	705.31378	1096.10669	687.94763	623.11749	1125.68347	727.98914	588.68048	1608.77112	772.44617	423.22055	1582.91101	796.32300	764.72644	1576.14258	870.19342	581.08252	1536.09583	
122	2.420	774.54120	409.80988	578.74573	788.57397	404.87347	491.89056	735.13928	409.12006	114.32193	646.52429	452.14435	71.37142	847.14294	382.30148	39.37143	886.17303	445.09708	73.50617	768.69781	732.77588	573.07526	793.44055	733.95789	455.94891	705.46222	732.07135	113.43990	629.81665	681.29614	73.59067	821.01984	777.84863	42.46734	868.17413	721.39716	70.91392	772.42242	535.79913	557.87213	747.14978	505.36707	120.77525	786.68030	610.34131	562.45782	737.04828	642.19861	120.77787	784.97107	401.55551	371.74609	713.60858	392.87741	491.85083	702.92444	386.31619	375.93875	705.66260	752.57318	476.16016	693.19727	753.65906	354.10095	844.64984	393.51260	898.52997	843.36938	396.46222	783.65332	797.41864	383.88791	750.76080	731.58746	382.71939	893.19788	736.36816	394.48532	776.09399	858.47162	753.46240	839.25336	859.16742	744.07098	701.34485	743.09210	772.16168	838.36505	747.15350	752.67236	704.22076	868.93207	447.56653	1094.44299	679.84033	540.53040	1126.81860	878.27960	705.21149	1095.82446	688.02368	623.21552	1125.77661	728.03741	588.66614	1608.85132	772.58112	423.13354	1582.97107	796.49066	764.69366	1576.15198	870.21289	581.00677	1536.27026	
123	2.440	774.63171	409.83636	578.75244	788.63953	404.87927	491.93399	735.15100	409.13580	114.31956	646.49438	452.15686	71.36220	847.13342	382.29269	39.38303	886.18134	445.11453	73.52537	768.69324	732.78528	573.05469	793.40485	733.92749	455.93246	705.45490	732.05121	113.43972	629.81354	681.31073	73.56527	821.04602	777.85657	42.43738	868.17181	721.41486	70.91754	772.42175	535.81543	557.84351	747.16211	505.39044	120.76043	786.75159	610.33728	562.50348	736.98108	642.20050	120.72158	784.95166	401.51410	371.71603	713.59277	392.91235	491.82471	702.92963	386.29520	375.92514	705.66827	752.57385	476.18854	693.31750	753.76654	354.04718	844.72443	393.49789	898.55048	843.51166	396.49796	783.58734	797.54004	383.88342	750.74329	731.74927	382.67233	893.27942	736.50757	394.58133	776.04602	858.57544	753.45050	839.23004	859.24988	744.13037	701.29834	743.28265	772.23096	838.40381	747.20447	752.64691	704.26917	869.10968	447.60382	1094.39331	680.08209	540.62598	1126.94141	878.82910	705.26459	1096.09570	688.17859	623.21686	1125.80383	728.09760	588.64258	1608.82031	772.61609	423.05011	1583.04321	796.61310	764.61810	1576.19104	870.23425	580.89948	1536.38843	
